<?xml version="1.0" encoding="UTF-8" standalone="no"?>
<!-- Created with Inkscape (http://www.inkscape.org/) -->

<svg
   version="1.1"
   id="svg2552"
   width="511.38803"
   height="366.07776"
   viewBox="0 0 511.38803 366.07776"
   sodipodi:docname="free-delivery.svg"
   inkscape:version="1.2.2 (732a01da63, 2022-12-09)"
   xmlns:inkscape="http://www.inkscape.org/namespaces/inkscape"
   xmlns:sodipodi="http://sodipodi.sourceforge.net/DTD/sodipodi-0.dtd"
   xmlns="http://www.w3.org/2000/svg"
   xmlns:svg="http://www.w3.org/2000/svg">
  <defs
     id="defs2556" />
  <sodipodi:namedview
     id="namedview2554"
     pagecolor="#505050"
     bordercolor="#eeeeee"
     borderopacity="1"
     inkscape:showpageshadow="0"
     inkscape:pageopacity="0"
     inkscape:pagecheckerboard="0"
     inkscape:deskcolor="#505050"
     showgrid="false"
     inkscape:zoom="0.53808594"
     inkscape:cx="459.03448"
     inkscape:cy="475.76044"
     inkscape:window-width="1366"
     inkscape:window-height="705"
     inkscape:window-x="-8"
     inkscape:window-y="-8"
     inkscape:window-maximized="1"
     inkscape:current-layer="g2558" />
  <g
     inkscape:groupmode="layer"
     inkscape:label="Image"
     id="g2558"
     transform="translate(482.69419,354.42147)">
    <path
       style="fill:#ffffff;fill-opacity:1"
       d="m -369.64485,9.445756 c -15.03217,-5.16908 -27.21025,-18.08 -31.02009,-32.88677 l -1.15787,-4.5 -30.93569,-0.5 c -29.3168,-0.47383 -31.14778,-0.61355 -34.9886,-2.669772 -5.48168,-2.93469 -10.26126,-7.90336 -12.82293,-13.33023 l -2.12416,-4.5 V -191.44102 -333.94101 l 2.12416,-4.5 c 2.7963,-5.92393 7.71606,-10.76072 13.87584,-13.64182 l 5,-2.33864 h 147 147 l 5,2.33331 c 2.75,1.28332 6.67727,4.1939 8.72727,6.46795 6.72813,7.46348 7.11708,9.18369 7.55143,33.39754 l 0.38958,21.71834 56.165857,0.28166 56.165861,0.28166 4.999999,2.6456 c 6.01414,3.18219 9.41771,6.22949 12.78521,11.44692 1.38712,2.14911 11.9029004,25.95748 23.3684104,52.90747 l 20.8463796,49 0.27905,62.9045 c 0.3123,70.400044 0.42196,69.130824 -6.54823,75.793054 -6.24656,5.970572 -7.31632,6.259482 -25.1884396,6.802452 l -16.4576304,0.5 -0.77589,3.74585 c -2.02557,9.77911 -11.11511,22.41613 -20.391829,28.35037 -15.468991,9.8954 -36.302031,10.01048 -51.568641,0.28487 -9.454817,-6.0232 -17.279077,-16.45946 -20.340677,-27.13109 l -1.64963,-5.75 h -96.24642 -96.24642 l -1.80195,5.75 c -2.74072,8.74555 -5.28592,13.10768 -11.36939,19.48557 -9.84737,10.32393 -20.4921,14.78814 -35.1254,14.73094 -5.95456,-0.0233 -10.38384,-0.65773 -14.51916,-2.07974 z m 29.11511,-16.99172 c 11.12364,-5.29822 17.73669,-15.8975 17.7644,-28.472502 0.0384,-17.44424 -13.95087,-31.60543 -31.21146,-31.59494 -12.82809,0.008 -23.87766,6.7542 -29.3883,17.94328 -3.34599,6.79388 -3.35436,20.647602 -0.0166,27.423982 4.64408,9.42841 13.73285,16.12357 24.05811,17.72218 6.87251,1.06405 11.91872,0.25263 18.79382,-3.022 z m -18.66445,-15.60128 c -2.33205,-0.85249 -6.04616,-4.51725 -7.59501,-7.494112 -5.45046,-10.47561 6.53426,-22.1945 17.85888,-17.46277 10.05908,4.20295 10.22031,20.055902 0.24635,24.223292 -3.47039,1.45002 -7.73594,1.74775 -10.51022,0.73359 z m 302.059167,17.61741 c 8.455981,-2.10379 17.161061,-10.61531 20.481311,-20.02592 1.87192,-5.305582 1.87192,-15.464942 0,-20.770522 -7.62296,-21.60579 -34.447021,-28.42786 -51.815571,-13.17807 -2.0261,1.77894 -5.14307,6.19859 -6.92659,9.82143 -4.29931,8.73315 -4.52706,17.88969 -0.65383,26.287532 7.20651,15.62499 21.51573,22.19429 38.91468,17.86555 z m -15.78948,-18.39377 c -6.70007,-2.91271 -9.3338,-12.619602 -5.24406,-19.327592 5.11002,-8.38142 18.45407,-7.87882 23.1471,0.87184 6.247941,11.64996 -5.55944,23.821862 -17.90304,18.455752 z M -400.66555,-48.441016 c 5.26894,-20.46683 24.26932,-35 45.75831,-35 14.43755,0 25.14313,4.52809 34.90695,14.76443 6.08461,6.37909 8.6286,10.7398 11.37144,19.49209 l 1.80402,5.75653 72.06532,-0.25653 72.06532,-0.25652 0.29171,-141.500004 c 0.20222,-98.0916 -0.0356,-142.63498 -0.77509,-145.19977 -0.65011,-2.25463 -2.32647,-4.59825 -4.29171,-6 l -3.22491,-2.30022 h -144 c -117.09521,0 -144.43039,0.24547 -146.30351,1.31382 -1.26693,0.7226 -3.17775,2.7476 -4.24626,4.5 -1.8989,3.11425 -1.94284,6.30814 -1.94649,141.48583 -0.004,146.913204 -0.17482,141.323694 4.43649,145.150734 2.96187,2.45814 8.09676,2.86086 34.49486,2.70534 l 26.43508,-0.15573 z m -43.79248,-99.250004 c -3.39887,-2.581 -3.73616,-6.523 -3.73616,-43.66588 0,-37.90521 0.3889,-42.15151 4.03944,-44.10522 1.05257,-0.56331 12.3964,-0.97889 26.7205,-0.97889 24.72575,0 24.9059,0.0154 27.06575,2.31445 2.87792,3.06341 2.8262,7.72449 -0.11638,10.4889 -2.15934,2.02859 -3.40648,2.1676 -21.75,2.42431 l -19.45931,0.27233 -0.28383,10.75 -0.28383,10.75 h 15.07928 c 14.67678,0 15.14481,0.0655 17.53383,2.45455 3.24735,3.24734 3.24735,7.84356 0,11.0909 -2.38853,2.38854 -2.85914,2.45455 -17.5,2.45455 h -15.04545 v 16.5 c 0,15.16667 -0.16162,16.66162 -2,18.5 -2.27536,2.27536 -7.73022,2.67396 -10.26384,0.75 z m 67.33642,-1.38486 c -2.01778,-2.56519 -2.07258,-3.68528 -2.07258,-42.36514 0,-38.67985 0.0548,-39.79994 2.07258,-42.36513 l 2.07258,-2.63486 h 22.27738 22.27738 l 4.00068,2.89808 c 5.96939,4.32419 7.2994,8.63418 7.2994,23.65427 0,8.39947 -0.45254,13.56953 -1.37684,15.72976 -1.80818,4.22599 -6.30004,8.35971 -10.80551,9.94398 l -3.6228,1.2739 7.88891,13.5 c 4.3389,7.425 7.89506,14.45181 7.90258,15.61514 0.008,1.16333 -0.919,3.30083 -2.05892,4.75 -2.7462,3.49123 -8.63615,3.68673 -11.59515,0.38486 -1.10899,-1.2375 -6.24399,-9.5625 -11.4111,-18.5 l -9.39475,-16.25 h -4.76321 -4.76321 v 15.86514 c 0,14.53614 -0.17362,16.08586 -2.07258,18.5 -1.59866,2.03236 -2.95404,2.63486 -5.92742,2.63486 -2.97338,0 -4.32876,-0.6025 -5.92742,-2.63486 z m 41.71125,-61.11514 -0.28383,-10.75 -13.75,-0.27822 -13.75,-0.27822 v 11.02822 11.02822 h 14.03383 14.03383 z m 27.39048,61.43555 c -2.15855,-2.29767 -2.17431,-2.60816 -2.17431,-42.82569 v -40.51122 l 2.31445,-2.17432 c 2.2487,-2.11254 3.02366,-2.17431 27.27749,-2.17431 27.05522,0 28.50525,0.26677 29.81501,5.4853 0.73097,2.91239 -1.51042,7.95668 -3.95175,8.89351 -0.89033,0.34165 -10.13197,0.62118 -20.53699,0.62118 h -18.91821 v 11 11 h 14.36514 c 13.01863,0 14.61212,0.19427 17,2.07258 3.72223,2.9279 3.72223,8.92694 0,11.85484 -2.38788,1.87831 -3.98137,2.07258 -17,2.07258 h -14.36514 v 11 11 h 19.38922 c 17.45423,0 19.61982,0.18674 21.7,1.87116 3.21091,2.60004 3.21091,8.65764 0,11.25768 -2.12121,1.71765 -4.37949,1.87116 -27.52569,1.87116 -25.06387,0 -25.22793,-0.0139 -27.38922,-2.31445 z m 68.82569,0.31445 c -1.93496,-1.93496 -2,-3.33333 -2,-43 0,-39.66666 0.065,-41.06503 2,-42.99999 1.89542,-1.89542 3.33333,-2 27.5,-2 24.16667,0 25.60458,0.10458 27.5,2 2.3548,2.3548 2.65119,7.7259 0.58266,10.55886 -1.30006,1.78049 -3.09997,1.98251 -21.75,2.44113 l -20.33266,0.5 -0.28383,10.75 -0.28383,10.75 h 15.07928 c 14.67678,0 15.14481,0.0655 17.53383,2.45455 3.24735,3.24734 3.24735,7.84356 0,11.0909 -2.38902,2.38903 -2.85705,2.45455 -17.53383,2.45455 h -15.07928 l 0.28383,10.75 0.28383,10.75 20.33266,0.5 c 18.65003,0.45862 20.44994,0.66064 21.75,2.44113 2.06853,2.83296 1.77214,8.20407 -0.58266,10.55887 -1.89542,1.89542 -3.33333,2 -27.5,2 -24.16667,0 -25.60458,-0.10458 -27.5,-2 z m 126.50771,99.250004 c 2.09163,-7.29065 5.65865,-13.44445 11.27077,-19.44426 18.842007,-20.14364 51.220638,-19.93364 69.914757,0.45344 4.67279,5.09596 9.92817,14.77977 11.12257,20.49497 l 0.78283,3.74585 h 14.2905304 c 13.81244,0 14.35444,-0.079 16.2006796,-2.36078 1.49033,-1.84192 1.91015,-3.96591 1.91015,-9.66395 v -7.30316 l -11.2499996,-0.33606 c -9.96769,-0.29775 -11.6333404,-0.60946 -14.6131404,-2.73471 -5.4486,-3.88605 -6.13686,-6.86942 -6.13686,-26.60134 0,-19.731924 0.68826,-22.715294 6.13686,-26.601344 2.9798,-2.12525 4.6454504,-2.43696 14.6131404,-2.73471 l 11.2499996,-0.33606 v -23.32271 -23.32271 l -20.5170396,-48.34124 c -11.2843704,-26.58766 -21.3113504,-49.42057 -22.2821804,-50.73978 -0.97083,-1.3192 -3.318639,-3.2317 -5.217359,-4.25 -3.23726,-1.73616 -6.79997,-1.85144 -57.217821,-1.85144 h -53.765597 v 115.49999 115.500004 h 15.92904 15.92904 z m -16.50771,-119.250004 c -1.93725,-1.93725 -2,-3.33333 -2,-44.5 0,-40.76024 0.0796,-42.57958 1.94422,-44.44421 1.06933,-1.06933 3.43183,-2.21659 5.25,-2.54949 1.81818,-0.33289 20.50623,-0.47049 41.528997,-0.30577 37.069441,0.29044 38.285441,0.36173 40.284511,2.36177 2.65752,2.6588 35.9922694,80.81346 35.9922694,84.38531 0,1.53324 -1.00198,3.64507 -2.31445,4.87808 l -2.3144504,2.17431 h -58.18555 c -56.852217,0 -58.231377,-0.0458 -60.185547,-2 z m 102.563587,-14.75 c -0.35772,-0.9625 -6.333869,-15.14372 -13.280349,-31.51381 l -12.62995,-29.7638 -31.576641,0.26381 -31.576647,0.26381 -0.26525,29.98906 c -0.14589,16.49399 -0.0475,30.55649 0.21862,31.25 0.37932,0.98851 10.12768,1.26093 45.122227,1.26093 42.09384,0 44.6013,-0.0998 43.98799,-1.75 z m 39.43641,90.250004 v -13.500004 h -7.9999996 -8 v 13.500004 13.5 h 8 7.9999996 z"
       id="path2679" />
  </g>
</svg>
