<?xml version="1.0" encoding="utf-8"?>
<!-- Generator: Adobe Illustrator 19.2.1, SVG Export Plug-In . SVG Version: 6.00 Build 0)  -->
<svg version="1.1" id="Layer_1" xmlns="http://www.w3.org/2000/svg" xmlns:xlink="http://www.w3.org/1999/xlink" x="0px" y="0px"
	 width="1920px" height="1920px" viewBox="0 0 1920 1920" enable-background="new 0 0 1920 1920" xml:space="preserve">
<rect opacity="0" fill="#FFFFFF" width="1920" height="1920"/>
<circle cx="960" cy="960" r="826.583"/>
<path fill="#FFFFFF" d="M959.638,614.197c126.637-0.676,239.156,4.992,310.242,14.314c-68.415-23.203-181.94-38.02-310.365-37.335
	s-241.785,16.713-309.949,40.644C720.548,621.739,833.001,614.872,959.638,614.197z"/>
<path fill="#FFFFFF" d="M1112.952,584.356c-14.978-40.089-75.656-69.861-148.106-69.475
	c-72.451,0.386-132.807,30.804-147.357,71.051C915.906,572.236,1014.394,571.71,1112.952,584.356z"/>
<path fill="#FFFFFF" d="M1313.75,656.305c-61.438-13.565-196.871-22.496-354.046-21.658S667.2,645.861,605.909,660.081
	c-15.439,10.022-23.877,20.831-23.817,32.073c0.268,50.237,169.68,90.06,378.393,88.947c208.713-1.113,377.69-42.741,377.422-92.978
	C1337.848,676.879,1329.295,666.162,1313.75,656.305z M957.767,651.882c13.06-0.07,23.679,5.82,23.718,13.156
	s-10.516,13.338-23.577,13.408c-13.06,0.07-23.679-5.82-23.718-13.156S944.707,651.952,957.767,651.882z M690.188,693.473
	c-13.725,0.073-24.87-3.273-24.893-7.475s11.086-7.667,24.811-7.74c13.725-0.073,24.87,3.274,24.893,7.475
	C715.022,689.934,703.913,693.4,690.188,693.473z M777.448,748.801c-7.207,0.038-13.06-1.719-13.072-3.925
	c-0.012-2.206,5.821-4.026,13.029-4.065s13.06,1.719,13.072,3.925S784.656,748.763,777.448,748.801z M960.365,758.63
	c-66.222,0.353-119.949-7.603-120.003-17.772c-0.054-10.168,53.585-18.698,119.807-19.051
	c66.222-0.353,119.949,7.603,120.003,17.772C1080.226,749.747,1026.587,758.276,960.365,758.63z M1143.167,746.85
	c-7.207,0.038-13.06-1.719-13.072-3.925c-0.012-2.206,5.822-4.026,13.029-4.065c7.208-0.038,13.06,1.719,13.072,3.925
	C1156.208,744.992,1150.375,746.812,1143.167,746.85z M1225.775,690.616c-13.725,0.073-24.87-3.274-24.893-7.475
	c-0.022-4.202,11.086-7.667,24.812-7.74c13.725-0.073,24.87,3.273,24.893,7.475C1250.609,687.077,1239.5,690.543,1225.775,690.616z"
	/>
<polygon fill="#FFFF00" points="1338.546,1920 552.204,1920 841,742.855 1080.81,742.855 "/>
<path d="M965.043,532.55c42.663-0.228,80.578,3.244,104.539,8.803c-23.08-13.692-61.346-22.529-104.611-22.298
	s-81.435,9.475-104.367,23.413C884.504,536.654,922.38,532.778,965.043,532.55z"/>
</svg>
